# xmcd
#
# Track frame offsets: 
#        182
#        17790
#        36215
#        55795
#        76522
#        95520
#        114090
#        133132
#        148362
#        168810
#        189845
#        207912
#        227447
#        247582
#
# Disc length: 3519 seconds
#
# Revision: 0
# Processed by: cddbd v1.5.2PL0 Copyright (c) Steve Scherf et al.
# Submitted via: ExactAudioCopyFreeDBPlugin 1.0
#
DISCID=a50dbd0e
DTITLE=With Love - Rubby Turner
DYEAR=1993
DGENRE=Soul
TTITLE0=What Becomes of the Brokenhearted.flac
TTITLE1=I'd Rather Go Blind.flac
TTITLE2=Tracks Of My Tears.flac
TTITLE3=Just My Imagination (Running Away With Me).flac
TTITLE4=Ooh Baby Baby.flac
TTITLE5=Bye Baby.flac
TTITLE6=Still Waters Run Deep.flac
TTITLE7=Signed Sealed Delivered I'm Yours.flac
TTITLE8=Baby I Need Your Lovin'.flac
TTITLE9=How Sweet It Is to Be Loved by You.flac
TTITLE10=It's a Crying Shame.flac
TTITLE11=Surrender.flac
TTITLE12=Someday Soon.flac
TTITLE13=Still on My Mind.flac
EXTD=
EXTT0=
EXTT1=
EXTT2=
EXTT3=
EXTT4=
EXTT5=
EXTT6=
EXTT7=
EXTT8=
EXTT9=
EXTT10=
EXTT11=
EXTT12=
EXTT13=
PLAYORDER=
